<mxfile host="65bd71144e">
    <diagram id="tRjhKivePMK-K3x6w36V" name="Page-1">
        <mxGraphModel dx="548" dy="786" grid="1" gridSize="10" guides="1" tooltips="1" connect="1" arrows="1" fold="1" page="1" pageScale="1" pageWidth="850" pageHeight="1100" math="0" shadow="0">
            <root>
                <mxCell id="0"/>
                <mxCell id="1" parent="0"/>
                <mxCell id="2" value="Player" style="rounded=1;whiteSpace=wrap;html=1;" parent="1" vertex="1">
                    <mxGeometry x="365" y="40" width="120" height="60" as="geometry"/>
                </mxCell>
                <mxCell id="16" value="" style="edgeStyle=none;html=1;" edge="1" parent="1" source="3" target="4">
                    <mxGeometry relative="1" as="geometry"/>
                </mxCell>
                <mxCell id="3" value="Skills" style="rounded=1;whiteSpace=wrap;html=1;" parent="1" vertex="1">
                    <mxGeometry x="365" y="260" width="120" height="60" as="geometry"/>
                </mxCell>
                <mxCell id="4" value="Characters" style="rounded=1;whiteSpace=wrap;html=1;" parent="1" vertex="1">
                    <mxGeometry x="365" y="150" width="120" height="60" as="geometry"/>
                </mxCell>
                <mxCell id="9" value="Inventory" style="rounded=1;whiteSpace=wrap;html=1;" vertex="1" parent="1">
                    <mxGeometry x="200" y="150" width="120" height="60" as="geometry"/>
                </mxCell>
                <mxCell id="14" value="" style="endArrow=classic;html=1;exitX=0.5;exitY=0;exitDx=0;exitDy=0;entryX=0.5;entryY=1;entryDx=0;entryDy=0;" edge="1" parent="1" source="3" target="4">
                    <mxGeometry relative="1" as="geometry">
                        <mxPoint x="360" y="320" as="sourcePoint"/>
                        <mxPoint x="460" y="320" as="targetPoint"/>
                    </mxGeometry>
                </mxCell>
                <mxCell id="15" value="Friend" style="edgeLabel;resizable=0;html=1;align=center;verticalAlign=middle;" connectable="0" vertex="1" parent="14">
                    <mxGeometry relative="1" as="geometry"/>
                </mxCell>
                <mxCell id="17" value="" style="endArrow=classic;html=1;exitX=0.5;exitY=0;exitDx=0;exitDy=0;entryX=0;entryY=0.5;entryDx=0;entryDy=0;" edge="1" parent="1" source="9" target="2">
                    <mxGeometry relative="1" as="geometry">
                        <mxPoint x="250" y="100" as="sourcePoint"/>
                        <mxPoint x="350" y="100" as="targetPoint"/>
                        <Array as="points">
                            <mxPoint x="260" y="70"/>
                        </Array>
                    </mxGeometry>
                </mxCell>
                <mxCell id="18" value="Friend" style="edgeLabel;resizable=0;html=1;align=center;verticalAlign=middle;" connectable="0" vertex="1" parent="17">
                    <mxGeometry relative="1" as="geometry"/>
                </mxCell>
                <mxCell id="19" value="" style="endArrow=classic;html=1;entryX=0.5;entryY=1;entryDx=0;entryDy=0;exitX=0.5;exitY=0;exitDx=0;exitDy=0;" edge="1" parent="1" source="4" target="2">
                    <mxGeometry relative="1" as="geometry">
                        <mxPoint x="360" y="390" as="sourcePoint"/>
                        <mxPoint x="460" y="390" as="targetPoint"/>
                    </mxGeometry>
                </mxCell>
                <mxCell id="20" value="Friend" style="edgeLabel;resizable=0;html=1;align=center;verticalAlign=middle;" connectable="0" vertex="1" parent="19">
                    <mxGeometry relative="1" as="geometry"/>
                </mxCell>
            </root>
        </mxGraphModel>
    </diagram>
</mxfile>